<?xml version="1.0" standalone="no"?>
<!DOCTYPE svg PUBLIC "-//W3C//DTD SVG 20010904//EN"
 "http://www.w3.org/TR/2001/REC-SVG-20010904/DTD/svg10.dtd">
<svg version="1.0" xmlns="http://www.w3.org/2000/svg"
 width="700.000000pt" height="700.000000pt" viewBox="0 0 700.000000 700.000000"
 preserveAspectRatio="xMidYMid meet">
<metadata>
Created by potrace 1.11, written by Peter Selinger 2001-2013
</metadata>
<g transform="translate(0.000000,700.000000) scale(0.100000,-0.100000)"
fill="#000000" stroke="none">
<path d="M3416 6983 c-4 -4 -46 -9 -94 -10 -128 -4 -166 -8 -180 -16 -7 -5
-12 -3 -12 4 0 8 -4 8 -12 1 -7 -5 -40 -12 -73 -15 -97 -10 -159 -18 -175 -24
-18 -7 -36 -11 -75 -17 -41 -6 -189 -43 -290 -71 -37 -11 -40 -12 -55 -18 -26
-10 -95 -30 -97 -29 -2 1 -19 -7 -38 -18 -21 -12 -35 -15 -35 -8 0 7 -7 5 -17
-4 -10 -9 -36 -21 -58 -28 -22 -7 -49 -19 -60 -26 -11 -7 -29 -14 -40 -16 -11
-2 -22 -5 -25 -8 -3 -3 -51 -28 -107 -55 -57 -27 -103 -52 -103 -57 0 -4 -3
-7 -7 -6 -13 3 -53 -13 -53 -21 0 -4 -16 -13 -35 -20 -19 -7 -35 -16 -35 -20
0 -5 -8 -11 -17 -14 -10 -4 -36 -18 -58 -32 -22 -13 -50 -30 -62 -37 -13 -6
-23 -15 -23 -20 0 -4 -6 -8 -13 -8 -8 0 -22 -9 -32 -20 -10 -11 -24 -20 -32
-20 -7 0 -13 -4 -13 -8 0 -4 -15 -16 -32 -27 -18 -10 -41 -27 -51 -38 -9 -11
-17 -17 -17 -14 0 6 -23 -11 -64 -48 -6 -5 -33 -27 -59 -49 -140 -112 -399
-377 -492 -504 -5 -7 -17 -21 -25 -31 -8 -9 -28 -37 -45 -61 -16 -25 -36 -49
-42 -53 -7 -4 -13 -15 -13 -22 0 -8 -3 -15 -8 -15 -4 0 -16 -17 -27 -37 -11
-20 -25 -41 -30 -47 -12 -13 -135 -214 -135 -221 0 -2 -13 -26 -29 -54 -16
-27 -27 -52 -24 -55 4 -3 1 -6 -6 -6 -7 0 -9 -4 -6 -10 3 -5 1 -10 -4 -10 -6
0 -10 -3 -9 -7 1 -5 -15 -43 -35 -85 -20 -42 -37 -84 -37 -93 0 -8 -4 -15 -9
-15 -4 0 -14 -20 -21 -45 -7 -25 -17 -45 -23 -45 -6 0 -8 -3 -5 -6 5 -4 -34
-132 -59 -194 -4 -8 -7 -18 -7 -22 -1 -3 -4 -9 -8 -13 -4 -4 -4 -13 -1 -21 3
-8 1 -14 -5 -14 -5 0 -8 -11 -7 -25 2 -14 0 -25 -4 -25 -4 0 -13 -28 -21 -62
-15 -71 -17 -77 -20 -80 -2 -3 -5 -20 -15 -73 -9 -54 -13 -72 -24 -126 -5 -25
-13 -79 -17 -120 -3 -41 -11 -82 -16 -91 -6 -13 -5 -18 4 -18 9 0 9 -3 2 -8
-5 -4 -11 -32 -12 -62 0 -30 -2 -55 -2 -55 -1 0 -4 -40 -6 -90 -5 -109 -4
-100 -4 -155 0 -25 0 -52 0 -60 0 -8 2 -53 5 -100 3 -47 7 -111 8 -142 1 -32
6 -58 11 -58 4 0 2 -8 -5 -17 -8 -9 -9 -14 -3 -10 8 4 13 -17 18 -66 4 -40 9
-88 12 -107 3 -19 6 -43 7 -52 1 -10 4 -18 7 -18 4 0 7 -12 8 -27 2 -41 7 -66
43 -198 17 -66 34 -135 36 -152 3 -18 9 -31 13 -28 4 3 10 -12 14 -33 3 -20
12 -50 20 -65 9 -15 11 -25 6 -22 -4 3 0 -12 10 -32 10 -21 16 -41 13 -45 -2
-5 0 -8 5 -8 6 0 12 -10 16 -23 3 -13 13 -41 23 -63 9 -21 18 -42 19 -46 1 -5
3 -11 4 -15 1 -5 2 -11 1 -15 0 -5 3 -8 7 -8 5 0 15 -18 22 -40 7 -22 17 -40
22 -40 4 0 7 -3 6 -7 -3 -14 63 -143 74 -143 5 0 8 -6 5 -12 -2 -7 3 -19 12
-26 12 -10 12 -11 1 -6 -8 5 -5 -4 8 -20 12 -16 22 -35 22 -43 0 -8 4 -11 10
-8 5 3 10 -1 10 -9 0 -8 6 -21 13 -28 7 -7 18 -24 25 -38 27 -56 50 -89 56
-83 3 3 6 0 6 -8 0 -9 8 -24 19 -35 10 -11 22 -30 25 -42 4 -12 11 -22 16 -22
5 0 18 -15 29 -33 11 -18 28 -42 38 -54 10 -11 29 -35 43 -53 68 -90 127 -155
267 -297 67 -68 127 -123 133 -123 5 0 10 -8 10 -17 0 -9 3 -14 6 -11 3 4 13
-1 23 -10 9 -9 39 -35 65 -57 27 -22 54 -46 62 -53 7 -6 17 -12 23 -12 6 0 15
-9 21 -20 6 -11 17 -20 24 -20 7 0 21 -9 31 -20 10 -11 24 -20 32 -20 7 0 13
-5 13 -10 0 -6 11 -15 25 -20 14 -5 25 -14 25 -20 0 -5 5 -10 10 -10 13 0 152
-90 162 -105 4 -5 8 -7 8 -3 0 4 28 -9 63 -30 61 -37 329 -172 351 -177 6 -1
25 -8 41 -15 17 -7 32 -14 35 -15 21 -7 50 -19 78 -31 18 -8 38 -14 45 -14 7
0 24 -6 39 -14 15 -8 42 -18 60 -22 41 -10 40 -9 58 -17 13 -5 93 -27 150 -42
8 -2 15 -4 15 -5 0 -1 16 -4 35 -6 19 -3 41 -5 48 -6 6 -1 12 -4 12 -8 0 -4 6
-7 13 -7 34 -1 175 -28 172 -33 -2 -3 13 -6 33 -7 95 -5 132 -8 132 -14 0 -3
15 -4 32 -3 18 1 39 -1 47 -6 8 -4 25 -4 37 0 12 5 25 6 29 2 8 -9 38 -10 200
-13 203 -3 296 2 288 15 -4 8 -3 8 6 0 8 -8 28 -8 63 -2 27 5 56 7 64 4 8 -3
14 -2 14 2 0 4 15 7 33 7 30 -1 79 5 152 19 17 3 65 11 107 17 42 7 75 15 73
19 -2 4 6 6 18 5 12 -1 27 0 32 4 6 3 18 6 28 7 9 1 18 2 20 4 1 1 9 3 17 5 8
2 47 12 87 23 40 11 75 17 78 14 3 -3 5 0 5 6 0 6 17 14 38 18 20 4 45 11 55
16 10 5 27 11 37 13 11 2 35 11 54 20 19 9 40 17 48 19 7 1 19 5 26 9 6 5 12
5 12 0 0 -4 4 -3 8 2 8 11 110 57 130 58 6 0 12 3 12 6 0 6 40 25 78 36 13 4
20 11 16 18 -4 7 -4 9 1 5 8 -7 127 50 133 64 2 5 8 6 13 2 5 -3 9 0 9 5 0 6
3 10 8 9 4 -1 18 5 32 13 108 68 161 99 170 99 6 0 8 5 5 10 -3 6 0 10 7 10 7
0 37 18 66 40 28 22 52 36 52 32 0 -4 6 0 13 8 7 9 30 29 52 45 74 55 144 113
230 192 59 54 204 193 200 193 -1 0 17 21 41 47 24 26 44 51 44 56 0 4 5 5 10
2 6 -3 10 -2 10 4 0 5 10 21 23 35 12 13 31 36 41 51 11 14 28 36 38 48 22 27
26 32 63 82 16 22 33 42 37 43 4 2 8 9 8 16 0 7 11 25 25 40 14 15 25 29 25
31 0 4 42 73 119 195 8 14 14 28 13 33 -1 4 3 7 9 7 5 0 7 5 4 10 -3 6 -2 10
4 10 5 0 15 16 22 35 7 19 17 35 21 35 4 0 8 9 8 20 0 11 4 20 10 20 5 0 9 3
8 8 -1 4 14 39 32 77 19 39 35 72 35 75 1 3 11 27 23 53 12 27 22 53 22 58 0
5 4 9 8 9 7 0 11 16 14 58 1 6 4 12 8 12 4 0 13 21 20 48 7 26 16 52 20 57 9
13 24 67 21 79 -1 4 2 13 8 20 5 6 14 37 21 68 7 32 16 58 19 58 4 0 7 8 8 18
1 9 5 33 9 52 4 19 7 45 8 57 0 12 3 20 7 18 3 -3 9 17 13 43 12 84 23 147 27
147 1 0 3 14 5 30 1 17 5 59 9 95 4 36 7 82 8 102 1 21 4 38 7 38 6 0 8 47 10
255 3 183 -1 296 -9 291 -3 -2 -6 29 -6 70 0 41 -2 74 -5 74 -3 0 -6 21 -8 48
-2 43 -8 87 -12 87 -1 0 -3 14 -5 30 -2 17 -9 59 -16 95 -7 36 -12 71 -12 78
0 6 -3 12 -7 12 -3 0 -7 12 -8 28 -3 28 -9 67 -12 67 -1 0 -3 7 -5 15 -21 88
-59 207 -69 212 -8 5 -7 8 3 8 10 0 10 6 -4 26 -9 14 -19 38 -21 52 -3 15 -11
40 -19 57 -7 16 -25 62 -40 100 -15 39 -33 73 -39 77 -6 4 -8 8 -4 8 10 0 -52
133 -66 142 -6 4 -7 8 -2 8 4 0 1 11 -8 25 -9 14 -13 25 -9 25 5 0 3 4 -3 8
-7 4 -19 24 -27 45 -9 20 -21 37 -27 37 -6 0 -9 4 -5 9 3 5 -1 15 -8 23 -15
15 -31 49 -28 61 0 4 -6 10 -14 13 -8 4 -15 10 -15 15 0 9 -48 87 -60 99 -5 5
-94 135 -123 181 -11 16 -23 29 -28 29 -5 0 -9 7 -9 16 0 8 -4 12 -10 9 -5 -3
-10 0 -10 7 0 7 -14 29 -31 48 -17 19 -44 50 -60 68 -16 19 -29 38 -29 44 0 5
-4 6 -10 3 -5 -3 -10 -2 -10 3 0 5 -17 27 -37 48 -21 21 -36 42 -35 46 1 4 -7
10 -18 13 -10 3 -22 15 -25 25 -3 11 -9 19 -13 17 -4 -1 -32 23 -63 53 -30 30
-69 66 -85 80 -16 14 -45 39 -65 55 -19 17 -52 44 -73 60 -21 17 -45 36 -52
43 -7 6 -15 12 -18 12 -3 0 -14 8 -24 18 -34 32 -76 62 -88 62 -7 0 -14 3 -16
8 -4 9 -74 62 -82 62 -4 0 -29 16 -56 35 -28 19 -50 32 -50 29 0 -4 -8 0 -17
9 -10 8 -54 34 -98 58 -44 23 -96 50 -115 60 -19 11 -40 19 -47 19 -7 0 -13 5
-13 10 0 6 -4 10 -10 10 -5 0 -38 13 -72 28 -35 16 -101 43 -148 61 -47 18
-92 36 -100 40 -8 4 -39 14 -67 21 -29 8 -53 16 -53 20 0 3 -11 7 -26 8 -14 1
-33 6 -42 11 -9 4 -25 7 -35 6 -9 -2 -15 0 -12 4 2 5 -27 14 -65 20 -39 7 -72
16 -75 20 -2 5 -17 8 -32 9 -15 1 -39 4 -53 7 -14 4 -36 7 -50 8 -14 1 -27 5
-30 8 -3 4 -34 10 -70 14 -36 4 -74 9 -85 11 -11 2 -34 5 -52 6 -18 1 -30 5
-26 11 3 5 -4 4 -16 -2 -11 -7 -21 -8 -21 -3 0 4 -21 9 -47 10 -157 6 -182 8
-189 14 -3 4 -14 4 -23 -1 -9 -4 -34 -6 -56 -4 -47 4 -52 4 -85 0 -14 -2 -28
0 -31 5 -3 4 -9 5 -13 1z m-172 -584 c-4 -8 -1 -8 13 -1 27 15 494 13 512 -2
12 -9 13 -8 6 4 -7 12 -6 13 6 4 8 -6 45 -14 82 -18 84 -8 135 -15 167 -23 41
-10 43 -11 88 -17 23 -4 60 -13 81 -21 22 -7 60 -17 85 -20 25 -4 46 -11 46
-16 0 -5 3 -8 8 -8 4 1 9 0 12 -1 11 -4 46 -11 67 -13 11 -1 19 -5 18 -8 -2
-3 19 -11 48 -19 29 -7 57 -16 62 -20 6 -4 41 -20 80 -35 38 -15 79 -34 90
-41 12 -8 25 -11 28 -7 4 3 7 1 7 -6 0 -7 5 -9 10 -6 6 3 10 2 10 -3 0 -5 18
-15 40 -22 22 -7 40 -16 40 -20 0 -8 39 -23 53 -21 4 1 7 -3 7 -8 0 -5 14 -14
30 -21 17 -7 30 -17 30 -23 0 -6 3 -8 6 -4 4 3 26 -7 50 -23 23 -17 45 -30 49
-30 3 0 13 -6 21 -12 8 -7 20 -17 27 -23 7 -5 24 -16 39 -24 15 -8 24 -19 21
-25 -3 -6 -3 -8 2 -4 7 7 65 -29 85 -51 3 -4 31 -26 63 -50 31 -24 57 -48 57
-54 0 -6 3 -8 6 -5 3 4 21 -9 41 -28 19 -19 39 -34 44 -34 6 0 7 -4 4 -10 -3
-5 -2 -10 2 -10 15 0 177 -167 248 -255 22 -28 45 -55 50 -61 6 -6 19 -23 30
-38 11 -16 25 -33 31 -40 5 -6 19 -26 29 -43 11 -18 23 -33 27 -33 4 0 8 -7 8
-15 0 -8 4 -15 9 -15 5 0 14 -13 21 -30 7 -16 16 -30 21 -30 5 0 9 -6 9 -13 0
-8 9 -24 20 -37 11 -13 23 -34 26 -47 4 -13 10 -23 15 -23 5 0 9 -4 9 -9 0 -5
15 -36 34 -69 19 -33 32 -63 28 -66 -3 -3 0 -6 7 -6 7 0 10 -4 6 -9 -3 -5 1
-15 8 -23 7 -7 26 -44 42 -83 16 -38 32 -74 35 -80 4 -5 13 -30 20 -55 8 -25
17 -47 20 -50 5 -5 11 -23 46 -145 8 -27 17 -57 21 -65 3 -8 7 -22 8 -30 1 -8
5 -22 9 -31 4 -9 8 -32 9 -52 1 -19 5 -33 10 -30 4 2 7 -6 8 -19 0 -13 2 -32
5 -43 2 -11 6 -40 10 -65 3 -25 11 -48 18 -52 8 -6 7 -8 -2 -8 -9 0 -10 -5 -4
-17 5 -10 9 -30 8 -45 -1 -16 1 -28 4 -28 3 0 5 -15 5 -32 -1 -18 2 -41 8 -52
7 -13 6 -16 -3 -11 -9 5 -10 2 -3 -11 5 -11 9 -47 9 -81 -1 -35 3 -63 8 -63 5
0 3 -6 -3 -13 -6 -8 -8 -17 -4 -21 10 -10 11 -66 1 -72 -5 -3 -6 -8 -4 -12 9
-15 16 -83 8 -78 -12 7 -9 -38 3 -46 6 -5 6 -8 -2 -8 -6 0 -10 -8 -8 -18 2
-11 -8 -32 -21 -48 -46 -53 -191 -198 -270 -269 -43 -38 -85 -77 -94 -85 -39
-37 -172 -140 -181 -140 -6 0 -7 -5 -4 -10 3 -5 1 -10 -5 -10 -11 0 -29 -13
-87 -60 -7 -6 -17 -10 -23 -10 -6 0 -13 -6 -16 -14 -3 -8 -19 -20 -35 -26 -16
-7 -29 -17 -29 -23 0 -6 -3 -8 -6 -4 -3 3 -15 -2 -25 -12 -11 -10 -32 -24 -47
-32 -15 -8 -32 -20 -38 -28 -6 -8 -16 -11 -22 -7 -7 4 -12 3 -12 -2 0 -12
-118 -84 -210 -129 -19 -9 -37 -19 -40 -22 -11 -12 -51 -31 -65 -31 -9 0 -13
-4 -10 -10 3 -5 1 -10 -5 -10 -16 0 -130 -52 -130 -60 0 -4 -6 -7 -13 -7 -8 0
-34 -9 -58 -20 -24 -11 -69 -30 -99 -43 -30 -13 -68 -29 -85 -36 -16 -7 -42
-16 -58 -19 -15 -4 -30 -11 -33 -16 -3 -5 -16 -9 -29 -9 -13 0 -26 -4 -29 -9
-6 -9 -125 -46 -138 -43 -5 1 -8 -2 -8 -7 0 -6 -8 -10 -17 -10 -44 -2 -63 -6
-63 -12 0 -3 -35 -14 -77 -24 -43 -10 -82 -20 -88 -24 -28 -16 -35 -8 -36 45
-1 30 -3 59 -4 64 -1 6 -3 16 -4 24 0 8 -8 22 -17 30 -8 9 -12 16 -8 16 4 0
-1 9 -11 20 -10 11 -15 20 -10 20 4 0 -5 10 -21 22 -16 13 -37 30 -48 40 -10
9 -32 20 -47 23 -16 4 -27 11 -24 15 3 6 -212 8 -508 7 -418 -2 -517 -5 -530
-16 -10 -7 -17 -10 -17 -7 0 11 -41 -14 -78 -48 -43 -39 -78 -100 -88 -151 -4
-22 -7 -191 -7 -376 0 -294 3 -344 18 -393 10 -31 22 -56 26 -56 5 0 9 -4 9
-9 0 -24 95 -101 124 -101 9 0 16 -4 16 -8 0 -13 -9 -13 500 -14 469 -1 540 1
540 12 0 3 15 12 34 18 38 14 116 87 116 108 0 8 4 14 9 14 14 0 24 47 30 145
6 89 6 90 34 93 17 2 25 8 21 14 -4 6 -3 9 2 5 14 -8 226 45 249 63 6 5 12 8
15 9 35 2 89 15 85 20 -2 4 15 12 38 18 23 7 56 17 72 24 17 7 32 13 35 13 6
1 70 29 140 60 25 11 47 21 50 21 3 1 26 11 53 23 26 12 50 21 54 21 3 0 9 3
12 8 7 10 73 43 81 40 3 -1 18 8 34 21 16 12 37 22 48 22 11 0 17 4 13 9 -3 5
11 15 30 21 19 6 35 15 35 20 0 5 9 11 20 15 28 9 132 73 141 86 3 6 9 10 12
10 11 -1 67 34 67 42 0 4 6 7 13 7 8 0 22 9 32 20 10 11 22 20 27 20 8 0 15 5
51 35 7 6 33 26 60 45 26 18 47 37 47 42 0 4 6 8 13 8 6 0 28 15 48 33 20 17
58 50 84 72 94 79 273 252 353 342 30 34 59 60 64 57 5 -3 5 -11 1 -17 -9 -15
-14 -37 -14 -59 0 -10 -4 -18 -8 -18 -4 0 -8 -6 -9 -12 -4 -45 -26 -115 -40
-126 -11 -8 -12 -12 -3 -12 10 0 11 -3 2 -13 -6 -8 -8 -17 -4 -20 3 -4 1 -7
-5 -7 -6 0 -9 -9 -7 -20 2 -11 0 -20 -5 -20 -5 0 -14 -17 -19 -38 -6 -21 -19
-55 -30 -77 -10 -22 -17 -43 -14 -47 2 -5 0 -8 -5 -8 -5 0 -15 -18 -22 -40 -7
-22 -17 -40 -22 -40 -4 0 -7 -3 -6 -7 3 -9 -52 -125 -62 -133 -7 -6 -22 -43
-20 -49 1 -2 -2 -7 -8 -10 -5 -3 -22 -28 -38 -56 -15 -27 -34 -56 -41 -63 -6
-6 -15 -21 -18 -32 -3 -11 -11 -20 -16 -20 -5 0 -9 -5 -9 -11 0 -6 -10 -24
-22 -39 -48 -60 -58 -75 -58 -88 0 -7 -4 -10 -10 -7 -5 3 -10 1 -10 -5 0 -6
-11 -22 -25 -35 -13 -14 -22 -25 -19 -25 3 0 -1 -6 -8 -13 -7 -8 -33 -38 -58
-67 -68 -80 -198 -210 -210 -210 -6 0 -8 -4 -5 -10 3 -5 3 -10 -2 -10 -4 0
-29 -19 -55 -43 -97 -88 -337 -267 -358 -267 -6 0 -10 -4 -10 -10 0 -5 -4 -10
-10 -10 -9 0 -72 -39 -97 -60 -7 -6 -16 -11 -20 -11 -14 -2 -38 -12 -43 -18
-9 -11 -125 -66 -132 -63 -5 1 -8 -3 -8 -8 0 -6 -5 -10 -10 -10 -6 0 -30 -9
-52 -20 -23 -11 -48 -20 -55 -20 -7 0 -13 -4 -13 -10 0 -5 -3 -9 -7 -8 -5 0
-15 -2 -23 -5 -60 -25 -150 -55 -150 -50 0 3 -6 1 -13 -5 -7 -6 -45 -20 -85
-31 -39 -11 -77 -23 -83 -27 -7 -4 -33 -9 -58 -11 -25 -2 -48 -7 -51 -11 -6
-8 -2 -7 -118 -27 -119 -21 -151 -26 -192 -28 -19 -2 -40 -6 -47 -10 -6 -4
-15 -3 -18 3 -4 7 -12 7 -18 2 -7 -4 -25 -8 -42 -7 -16 1 -33 -3 -37 -9 -5 -7
-8 -7 -8 -1 0 11 -66 12 -77 1 -11 -11 -24 -6 -17 7 5 9 4 9 -6 0 -11 -10 -17
-10 -29 0 -12 9 -13 9 -7 0 9 -16 -8 -17 -34 -3 -12 6 -21 6 -25 1 -5 -9 -42
-7 -72 4 -7 2 -13 0 -13 -6 0 -6 -7 -6 -17 -1 -10 4 -42 8 -70 7 -29 0 -53 2
-53 5 0 3 -17 5 -38 6 -96 3 -170 10 -166 15 2 4 -22 10 -54 14 -31 4 -73 9
-92 11 -19 3 -39 9 -45 13 -9 8 -56 18 -107 23 -10 1 -18 5 -18 9 0 3 -27 12
-60 19 -33 7 -60 17 -60 21 0 5 -3 8 -7 7 -13 -3 -73 13 -101 28 -15 8 -35 14
-44 14 -9 0 -20 5 -23 10 -4 6 -11 8 -16 5 -5 -4 -9 -1 -9 4 0 6 -6 11 -14 11
-8 0 -53 18 -100 40 -47 22 -90 40 -95 40 -6 0 -11 4 -11 9 0 8 -21 17 -44 19
-5 0 -12 4 -15 9 -3 4 -15 13 -26 19 -87 46 -111 60 -115 64 -9 9 -90 60 -95
60 -5 0 -16 8 -48 36 -7 5 -27 19 -44 29 -18 11 -33 23 -33 27 0 4 -5 8 -10 8
-6 0 -19 8 -29 18 -11 9 -26 22 -33 27 -99 75 -341 309 -418 404 -19 24 -40
48 -45 55 -6 6 -24 29 -40 51 -38 51 -41 55 -65 84 -11 13 -20 27 -20 31 0 4
-11 20 -25 36 -14 16 -25 35 -25 42 0 6 -4 12 -10 12 -5 0 -10 7 -10 15 0 8
-9 24 -20 35 -11 11 -18 20 -15 20 3 0 -8 20 -25 45 -17 25 -27 45 -23 45 4 0
4 4 -2 8 -5 4 -23 34 -40 67 -16 33 -34 63 -38 66 -5 3 -8 9 -7 13 0 3 -9 28
-20 54 -12 26 -31 70 -41 97 -11 28 -26 64 -35 82 -8 17 -17 45 -20 62 -4 17
-9 31 -13 31 -4 0 -8 8 -9 18 -3 29 -7 47 -14 57 -3 6 -14 44 -24 85 -9 41
-20 77 -23 80 -6 5 -8 17 -17 89 -7 59 -8 65 -16 71 -6 5 -12 51 -24 182 -5
53 -10 75 -18 71 -6 -4 -5 1 3 10 11 14 11 17 0 18 -10 0 -11 2 -2 6 9 3 10
10 4 22 -10 18 -12 459 -2 476 3 6 6 19 7 30 2 32 14 129 27 225 2 8 5 20 8
25 3 6 6 26 8 45 2 19 6 40 10 45 4 6 6 22 5 38 -2 15 1 25 7 22 5 -4 10 3 10
14 1 12 2 24 3 29 1 4 6 26 10 50 4 23 11 42 15 42 4 0 7 8 8 18 1 17 10 55
13 60 2 1 3 5 5 10 1 4 7 21 14 37 7 17 15 42 18 58 3 15 9 27 14 27 5 0 8 3
7 8 -4 10 55 156 64 160 5 2 6 7 3 12 -3 5 3 16 12 26 10 10 17 19 15 21 -4 6
51 118 62 125 6 4 7 8 2 8 -5 0 -2 8 6 18 9 9 19 27 22 40 4 12 12 22 17 22 5
0 9 6 9 13 0 8 9 24 20 37 11 13 20 29 20 37 0 7 7 16 15 19 8 4 15 12 15 19
0 8 6 20 13 27 6 7 29 38 50 68 20 30 47 67 59 82 13 14 34 41 48 59 14 18 37
46 53 62 15 16 27 31 27 34 0 7 248 250 296 290 63 53 88 72 149 118 22 16 46
35 53 42 7 7 17 13 22 13 5 0 15 6 22 13 18 17 89 62 111 70 9 3 17 11 17 17
0 6 4 9 9 5 5 -3 12 -1 16 4 8 15 294 160 343 175 12 4 22 11 22 15 0 4 9 7
19 8 10 1 40 11 65 23 25 11 61 23 79 27 17 3 34 10 38 14 3 5 18 10 35 12 16
2 38 8 49 14 11 6 34 13 50 17 17 3 41 9 55 12 14 3 31 6 38 6 6 1 12 4 12 8
0 3 8 6 18 7 9 1 31 4 47 8 17 4 41 8 55 9 14 2 32 6 40 9 17 6 75 15 165 24
80 8 83 8 91 16 11 11 16 8 8 -4z"/>
</g>
</svg>
