<svg version="1.1" id="Ebene_1" xmlns="http://www.w3.org/2000/svg" xmlns:xlink="http://www.w3.org/1999/xlink" x="0px" y="0px" width="107.2px" height="50.9px"
	 viewBox="0 0 107.2 50.9" style="enable-background:new 0 0 107.2 50.9;" xml:space="preserve">
<style type="text/css">
	.st0{fill:url(#SVGID_1_);}
	.st1{fill:#244669;}
</style>
<g>
	<linearGradient id="SVGID_1_" gradientUnits="userSpaceOnUse" x1="6.4177" y1="39.2766" x2="28.7865" y2="17.9563">
		<stop  offset="0" style="stop-color:#CD470A"/>
		<stop  offset="1" style="stop-color:#EB6608"/>
	</linearGradient>
	<path class="st0" d="M23.2,0C10.4,0,0,10.4,0,23.2s10.4,23.2,23.2,23.2s23.2-10.4,23.2-23.2S36.1,0,23.2,0z M23.2,42.7
		C12.5,42.7,3.8,34,3.8,23.2c0-10.7,8.7-19.5,19.5-19.5s19.5,8.7,19.5,19.5c0,0.4,0,0.8,0,1.2c-3.8,4.2-9.1,7.4-14.7,8.7v-0.3
		c0-1.1-0.9-1.9-1.9-1.9h-5.7c-1.1,0-1.9,0.9-1.9,1.9v4.1c0,1.1,0.9,1.9,1.9,1.9H26c1.1,0,1.9-0.9,1.9-1.9v-0.7
		c5.6-1.3,10.6-4.4,14.3-8.7C40.3,36.2,32.5,42.7,23.2,42.7z"/>
</g>
<g>
	<g>
		<path class="st1" d="M54.2,15.4l-0.4,1.1c-0.2,0.6-0.5,1-0.8,1.3c-0.3,0.3-0.8,0.5-1.5,0.5c-0.2,0-0.5,0-0.7-0.1
			c-0.2,0-0.3-0.1-0.5-0.1c-0.1,0-0.3,0-0.3,0.2l-1,3.1c0,0.1,0,0.3,0.2,0.3c0.5,0.1,1.2,0.3,1.6,0.4c0.4,0.1,0.9,0.1,1.3,0.1
			c0.9,0,1.6-0.1,2.2-0.3c0.6-0.2,1.2-0.5,1.6-0.9s0.9-0.9,1.2-1.4c0.3-0.6,0.6-1.2,0.9-1.9L61.7,8c0,0.3,0,0.6,0,0.9
			c0,1.1,0.2,2.1,0.6,3c0.4,0.9,0.9,1.7,1.6,2.3c0.7,0.6,1.5,1.1,2.4,1.5c0.9,0.3,1.9,0.5,2.9,0.5c1,0,2-0.2,2.9-0.5
			c0.9-0.3,1.7-0.8,2.4-1.5c0.7-0.6,1.2-1.4,1.6-2.3c0.2-0.4,0.3-0.7,0.4-1.1c0,0.6,0.1,1.2,0.3,1.8c0.2,0.7,0.5,1.2,0.8,1.8
			c0.4,0.5,0.9,0.9,1.5,1.3c0.6,0.3,1.4,0.5,2.3,0.5c0.5,0,0.9-0.1,1.3-0.2c0.4-0.1,0.8-0.3,1.2-0.5c0.4-0.2,0.7-0.4,0.9-0.7
			c0.3-0.3,0.5-0.6,0.6-0.9h0.1v1.6c0,0.1,0.1,0.2,0.2,0.2h3.8c0.1,0,0.2-0.1,0.2-0.2v-13c0-0.1-0.1-0.2-0.2-0.2h-4
			c-0.1,0-0.2,0.1-0.2,0.2v7.1c0,0.8-0.2,1.5-0.6,2c-0.4,0.6-1,0.9-1.8,0.9c-0.4,0-0.8-0.1-1-0.2c-0.3-0.2-0.5-0.4-0.6-0.6
			c-0.2-0.3-0.3-0.6-0.3-0.9C81,10.2,81,9.8,81,9.5V2.4c0-0.1-0.1-0.2-0.2-0.2h-4c-0.1,0-0.2,0.1-0.2,0.2V7
			c-0.1-0.4-0.2-0.8-0.4-1.1c-0.4-0.9-0.9-1.6-1.6-2.3C73.8,3,73,2.5,72.1,2.2c-0.9-0.3-1.9-0.5-2.9-0.5c-1,0-2,0.2-2.9,0.5
			c-0.9,0.3-1.7,0.8-2.4,1.4c-0.3,0.3-0.6,0.6-0.8,0.9l0.8-2c0.1-0.2-0.1-0.3-0.2-0.3h-4.2c-0.1,0-0.2,0.1-0.2,0.2l-2.6,8.5h-0.1
			l-3-8.5c0-0.1-0.1-0.2-0.2-0.2h-4.4c-0.2,0-0.3,0.2-0.2,0.3L54.2,15.4z M66.2,7.5c0.1-0.4,0.3-0.8,0.6-1.1c0.3-0.3,0.6-0.6,1-0.8
			c0.4-0.2,0.9-0.3,1.4-0.3c0.5,0,1,0.1,1.4,0.3c0.4,0.2,0.7,0.5,1,0.8c0.3,0.3,0.5,0.7,0.6,1.1c0.1,0.4,0.2,0.9,0.2,1.3
			s-0.1,0.9-0.2,1.3c-0.1,0.4-0.3,0.8-0.6,1.1c-0.3,0.3-0.6,0.6-1,0.8c-0.4,0.2-0.9,0.3-1.4,0.3c-0.5,0-1-0.1-1.4-0.3
			c-0.4-0.2-0.7-0.5-1-0.8c-0.3-0.3-0.5-0.7-0.6-1.1C66,9.7,66,9.3,66,8.8S66,8,66.2,7.5z"/>
		<path class="st1" d="M80.6,30.1h4c0.1,0,0.2-0.1,0.2-0.2v-8.1c0-0.6-0.1-1.3-0.3-1.9c-0.2-0.7-0.4-1.3-0.8-1.8
			c-0.4-0.5-0.9-1-1.5-1.3c-0.6-0.3-1.4-0.5-2.3-0.5c-1,0-1.9,0.2-2.6,0.6c-0.7,0.4-1.3,1-1.7,1.7c-0.4-0.7-0.9-1.3-1.6-1.7
			c-0.7-0.4-1.5-0.6-2.5-0.6c-0.5,0-1,0.1-1.4,0.2c-0.4,0.1-0.8,0.3-1.2,0.5c-0.3,0.2-0.6,0.4-0.9,0.7c-0.2,0.3-0.4,0.6-0.6,0.8
			h-0.1v-1.6c0-0.1-0.1-0.2-0.2-0.2h-3.8c-0.1,0-0.2,0.1-0.2,0.2v13c0,0.1,0.1,0.2,0.2,0.2h4c0.1,0,0.2-0.1,0.2-0.2v-7.1
			c0-0.8,0.2-1.5,0.6-2.1c0.4-0.6,0.9-0.8,1.6-0.8c0.7,0,1.2,0.2,1.5,0.7c0.3,0.5,0.5,1.1,0.5,1.8v7.5c0,0.1,0.1,0.2,0.2,0.2h4
			c0.1,0,0.2-0.1,0.2-0.2v-7.1c0-0.4,0-0.7,0.1-1.1c0.1-0.4,0.2-0.7,0.4-0.9s0.4-0.5,0.7-0.7c0.3-0.2,0.6-0.2,1-0.2
			c0.4,0,0.7,0.1,1,0.2c0.2,0.2,0.4,0.4,0.6,0.6c0.1,0.3,0.2,0.6,0.3,0.9c0.1,0.4,0.1,0.7,0.1,1.1v7.1C80.4,30,80.5,30.1,80.6,30.1z
			"/>
		<path class="st1" d="M87.7,30.8h-4.2c-0.1,0-0.2,0.1-0.2,0.2l-2.6,8.5h-0.1l-3-8.5c0-0.1-0.1-0.2-0.2-0.2H73
			c-0.2,0-0.3,0.2-0.2,0.3l0.3,0.6c-0.4-0.4-1-0.7-1.6-1c-0.8-0.3-1.8-0.4-2.9-0.4c-1.1,0-2.2,0.2-3.2,0.6c-1,0.4-1.8,0.9-2.6,1.5
			c-0.1,0.1-0.1,0.3,0,0.4l1.9,2.1c0.1,0.1,0.2,0.1,0.3,0c0.4-0.3,0.8-0.6,1.3-0.8c0.6-0.3,1.2-0.4,1.8-0.4c0.7,0,1.3,0.2,1.7,0.5
			c0.5,0.3,0.7,0.8,0.7,1.5v0.2c-1,0-2,0.1-3,0.2c-1,0.1-2,0.3-2.8,0.7c-0.8,0.3-1.5,0.8-2.1,1.4c-0.2,0.2-0.4,0.5-0.5,0.7V24.1
			c0-0.1-0.1-0.2-0.2-0.2h-4c-0.1,0-0.2,0.1-0.2,0.2v8.2h-0.1c-0.4-0.5-0.9-0.9-1.6-1.2c-0.7-0.4-1.5-0.6-2.5-0.6
			c-1,0-1.9,0.2-2.6,0.6s-1.5,0.9-2,1.5c-0.6,0.7-1,1.4-1.3,2.3c-0.3,0.9-0.4,1.8-0.4,2.7c0,0.9,0.1,1.8,0.4,2.7
			c0.3,0.9,0.7,1.6,1.3,2.3c0.6,0.7,1.2,1.2,2,1.6c0.8,0.4,1.7,0.6,2.7,0.6c0.9,0,1.8-0.2,2.6-0.6c0.8-0.4,1.4-0.9,1.9-1.6h0.1v1.5
			c0,0.1,0.1,0.2,0.2,0.2H62c0.1,0,0.2-0.1,0.2-0.2v-2c0,0.1,0.1,0.2,0.1,0.3c0.3,0.5,0.7,1,1.2,1.3c0.5,0.3,1,0.6,1.6,0.7
			c0.6,0.1,1.1,0.2,1.7,0.2c0.8,0,1.6-0.2,2.3-0.5c0.7-0.3,1.2-0.7,1.6-1.3h0.1v1.2c0,0.1,0.1,0.2,0.2,0.2h3.6
			c0.1,0,0.2-0.1,0.2-0.2v-6.6c0-0.7,0-1.3-0.1-1.9l3.6,8.5l-0.4,1.1c-0.2,0.6-0.5,1-0.8,1.3c-0.3,0.3-0.8,0.5-1.5,0.5
			c-0.2,0-0.5,0-0.7-0.1c-0.2,0-0.3-0.1-0.5-0.1s-0.3,0.1-0.3,0.2l-0.4,3.2c0,0.1,0.1,0.2,0.2,0.3c0.3,0.1,0.6,0.1,0.9,0.2
			c0.4,0.1,0.9,0.1,1.3,0.1c0.9,0,1.6-0.1,2.2-0.3c0.6-0.2,1.2-0.5,1.6-0.9s0.9-0.9,1.2-1.4c0.3-0.6,0.6-1.2,0.9-1.9L88,31.2
			C88,31,87.9,30.8,87.7,30.8z M57.7,38.8c-0.2,0.4-0.4,0.8-0.7,1.1c-0.3,0.3-0.6,0.6-1,0.8c-0.4,0.2-0.9,0.3-1.4,0.3
			c-0.5,0-1-0.1-1.4-0.3c-0.4-0.2-0.7-0.5-1-0.8c-0.3-0.3-0.5-0.7-0.6-1.1c-0.1-0.4-0.2-0.9-0.2-1.3s0.1-0.9,0.2-1.3
			c0.1-0.4,0.3-0.8,0.6-1.1c0.3-0.3,0.6-0.6,1-0.8c0.4-0.2,0.9-0.3,1.4-0.3c0.5,0,1,0.1,1.4,0.3c0.4,0.2,0.7,0.5,1,0.8
			c0.3,0.3,0.5,0.7,0.7,1.1c0.2,0.4,0.2,0.8,0.2,1.3C58,38,57.9,38.4,57.7,38.8z M70.7,38.9c0,0.9-0.2,1.5-0.7,2
			c-0.5,0.5-1.2,0.7-2.1,0.7c-0.2,0-0.4,0-0.7-0.1c-0.2,0-0.4-0.1-0.6-0.2c-0.2-0.1-0.3-0.3-0.4-0.4c-0.1-0.2-0.2-0.4-0.2-0.7
			c0-0.4,0.1-0.7,0.4-1c0.3-0.2,0.6-0.4,1-0.6c0.4-0.1,0.8-0.2,1.3-0.3c0.5,0,1-0.1,1.5-0.1h0.6V38.9z"/>
		<path class="st1" d="M107,19.8c-0.2-0.7-0.4-1.3-0.8-1.8c-0.4-0.5-0.9-1-1.5-1.3c-0.6-0.3-1.4-0.5-2.3-0.5c-1,0-1.9,0.2-2.6,0.6
			c-0.7,0.4-1.3,1-1.7,1.7c-0.4-0.7-0.9-1.3-1.6-1.7c-0.7-0.4-1.5-0.6-2.5-0.6c-0.5,0-1,0.1-1.4,0.2c-0.4,0.1-0.8,0.3-1.2,0.5
			c-0.3,0.2-0.6,0.4-0.9,0.7c-0.2,0.3-0.4,0.6-0.6,0.8h-0.1v-1.6c0-0.1-0.1-0.2-0.2-0.2h-3.8c-0.1,0-0.2,0.1-0.2,0.2v13
			c0,0.1,0.1,0.2,0.2,0.2h4c0.1,0,0.2-0.1,0.2-0.2v-7.1c0-0.8,0.2-1.5,0.6-2.1c0.4-0.6,0.9-0.8,1.6-0.8c0.7,0,1.2,0.2,1.5,0.7
			c0.3,0.5,0.5,1.1,0.5,1.8v7.5c0,0.1,0.1,0.2,0.2,0.2h4c0.1,0,0.2-0.1,0.2-0.2v-7.1c0-0.4,0-0.7,0.1-1.1c0.1-0.4,0.2-0.7,0.4-0.9
			s0.4-0.5,0.7-0.7c0.3-0.2,0.6-0.2,1-0.2c0.4,0,0.7,0.1,1,0.2c0.2,0.2,0.4,0.4,0.6,0.6c0.1,0.3,0.2,0.6,0.3,0.9
			c0.1,0.4,0.1,0.7,0.1,1.1v7.1c0,0.1,0.1,0.2,0.2,0.2h4c0.1,0,0.2-0.1,0.2-0.2v-8.1C107.2,21.1,107.1,20.4,107,19.8z"/>
	</g>
	<path class="st1" d="M83.2,43.5c0-0.3,0.1-0.5,0.3-0.7c0.2-0.2,0.4-0.3,0.7-0.3c0.3,0,0.5,0.1,0.7,0.3c0.2,0.2,0.3,0.4,0.3,0.7
		c0,0.3-0.1,0.5-0.3,0.7c-0.2,0.2-0.4,0.3-0.7,0.3c-0.1,0-0.3,0-0.4-0.1c-0.1,0-0.2-0.1-0.3-0.2c-0.1-0.1-0.2-0.2-0.2-0.3
		C83.2,43.8,83.2,43.6,83.2,43.5z"/>
	<path class="st1" d="M89.9,40.1c-0.1-0.2-0.3-0.3-0.5-0.4c-0.2-0.1-0.5-0.2-0.7-0.2c-0.3,0-0.5,0.1-0.7,0.2
		c-0.2,0.1-0.4,0.3-0.5,0.4c-0.1,0.2-0.2,0.4-0.3,0.6c-0.1,0.2-0.1,0.5-0.1,0.7c0,0.2,0,0.5,0.1,0.7c0.1,0.2,0.2,0.4,0.3,0.6
		c0.1,0.2,0.3,0.3,0.5,0.4c0.2,0.1,0.5,0.2,0.7,0.2c0.2,0,0.5,0,0.7-0.1c0.2-0.1,0.4-0.2,0.6-0.4l0.9,0.9c-0.2,0.3-0.6,0.5-0.9,0.6
		c-0.4,0.1-0.8,0.2-1.2,0.2c-0.4,0-0.8-0.1-1.2-0.2c-0.4-0.1-0.7-0.3-1-0.6c-0.3-0.3-0.5-0.6-0.7-1c-0.2-0.4-0.3-0.8-0.3-1.3
		c0-0.5,0.1-0.9,0.3-1.3c0.2-0.4,0.4-0.7,0.7-1c0.3-0.3,0.6-0.5,1-0.6c0.4-0.1,0.8-0.2,1.2-0.2c0.4,0,0.9,0.1,1.3,0.2
		c0.4,0.2,0.7,0.4,1,0.7L89.9,40.1z"/>
	<path class="st1" d="M91,41.4c0-0.5,0.1-0.9,0.3-1.3c0.2-0.4,0.4-0.7,0.7-1c0.3-0.3,0.6-0.5,1-0.6c0.4-0.1,0.8-0.2,1.3-0.2
		s0.9,0.1,1.3,0.2c0.4,0.1,0.7,0.4,1,0.6c0.3,0.3,0.5,0.6,0.7,1c0.2,0.4,0.3,0.8,0.3,1.3c0,0.5-0.1,0.9-0.3,1.3
		c-0.2,0.4-0.4,0.7-0.7,1c-0.3,0.3-0.6,0.5-1,0.6c-0.4,0.2-0.8,0.2-1.3,0.2s-0.9-0.1-1.3-0.2c-0.4-0.2-0.7-0.4-1-0.6
		c-0.3-0.3-0.5-0.6-0.7-1C91.1,42.3,91,41.9,91,41.4z M92.5,41.4c0,0.2,0,0.5,0.1,0.7c0.1,0.2,0.2,0.4,0.3,0.6
		c0.1,0.2,0.3,0.3,0.5,0.4c0.2,0.1,0.5,0.2,0.8,0.2c0.3,0,0.5-0.1,0.8-0.2c0.2-0.1,0.4-0.3,0.5-0.4c0.1-0.2,0.2-0.4,0.3-0.6
		c0.1-0.2,0.1-0.5,0.1-0.7c0-0.2,0-0.5-0.1-0.7c-0.1-0.2-0.2-0.4-0.3-0.6c-0.1-0.2-0.3-0.3-0.5-0.4c-0.2-0.1-0.5-0.2-0.8-0.2
		c-0.3,0-0.5,0.1-0.8,0.2c-0.2,0.1-0.4,0.3-0.5,0.4c-0.1,0.2-0.2,0.4-0.3,0.6C92.5,40.9,92.5,41.2,92.5,41.4z"/>
	<path class="st1" d="M105.1,38.3c0.4,0,0.7,0.1,1,0.2c0.3,0.1,0.5,0.3,0.7,0.5c0.2,0.2,0.3,0.5,0.4,0.8c0.1,0.3,0.1,0.6,0.1,0.9
		v3.7h-1.5v-3.3c0-0.2,0-0.4,0-0.5c0-0.2-0.1-0.4-0.2-0.5c-0.1-0.2-0.2-0.3-0.3-0.4c-0.1-0.1-0.3-0.1-0.6-0.1c-0.2,0-0.4,0-0.6,0.1
		c-0.2,0.1-0.3,0.2-0.4,0.4c-0.1,0.2-0.2,0.3-0.2,0.5c0,0.2-0.1,0.4-0.1,0.6v3.2h-1.5v-3.6c0-0.4-0.1-0.7-0.3-0.9
		c-0.2-0.2-0.5-0.4-0.8-0.4c-0.2,0-0.4,0-0.6,0.1c-0.2,0.1-0.3,0.2-0.4,0.4c-0.1,0.1-0.2,0.3-0.2,0.5c-0.1,0.2-0.1,0.4-0.1,0.6v3.2
		H98v-5.9h1.4v0.9h0c0.1-0.1,0.2-0.3,0.3-0.4c0.1-0.1,0.2-0.2,0.4-0.4c0.2-0.1,0.3-0.2,0.5-0.3c0.2-0.1,0.4-0.1,0.7-0.1
		c0.5,0,0.8,0.1,1.1,0.3c0.3,0.2,0.5,0.5,0.7,0.8c0.2-0.4,0.5-0.6,0.8-0.8C104.2,38.4,104.6,38.3,105.1,38.3z"/>
</g>
</svg>
