<svg id="Ebene_1" data-name="Ebene 1" xmlns="http://www.w3.org/2000/svg" viewBox="0 0 162.42 162.42"><defs><style>.cls-1{fill:#fff;}</style></defs><title>Zeichenfläche 1</title><path class="cls-1" d="M81.21,0a81.21,81.21,0,1,0,81.21,81.21A81.21,81.21,0,0,0,81.21,0h0m0,149.19a68,68,0,1,1,68-68h0c0,1.42-.06,2.83-.15,4.24-13.11,14.79-31.74,25.73-51.51,30.49v-1.19a6.68,6.68,0,0,0-6.68-6.68H71a6.68,6.68,0,0,0-6.68,6.68h0V129A6.68,6.68,0,0,0,71,135.64H90.86A6.68,6.68,0,0,0,97.54,129v-2.43a94.76,94.76,0,0,0,50-30.33,68.1,68.1,0,0,1-66.3,53"/></svg>