<svg xmlns="http://www.w3.org/2000/svg" viewBox="0 0 389.04 187"><title>logo-yoummday</title><path d="M196.34,58.39l-1.52,3.89a13.47,13.47,0,0,1-2.75,4.7q-1.62,1.66-5.22,1.66a15,15,0,0,1-2.51-.24q-.92-.16-1.73-.38a.86.86,0,0,0-1,.54L178,79.23a.86.86,0,0,0,.59,1.11,56.67,56.67,0,0,0,5.59,1.29,37,37,0,0,0,4.51.29,25.55,25.55,0,0,0,7.73-1,16.5,16.5,0,0,0,5.69-3.08,19.89,19.89,0,0,0,4.18-4.93,41.42,41.42,0,0,0,3.18-6.59l13.2-33.92a29.63,29.63,0,0,0-.15,3,25.54,25.54,0,0,0,2.09,10.49,23.83,23.83,0,0,0,5.65,8,25.38,25.38,0,0,0,8.35,5.08,29.35,29.35,0,0,0,20.26,0,26.07,26.07,0,0,0,8.35-5.08,23.82,23.82,0,0,0,7-12,27.77,27.77,0,0,0,.88,6.38A17.35,17.35,0,0,0,278,54.36a15.52,15.52,0,0,0,5.31,4.41,17.17,17.17,0,0,0,8,1.71,16.4,16.4,0,0,0,4.7-.66,19.78,19.78,0,0,0,4.08-1.71,14.08,14.08,0,0,0,3.23-2.47,13.41,13.41,0,0,0,2.23-3h.19v5.68a.87.87,0,0,0,.87.86h13.26a.87.87,0,0,0,.86-.86V12.76a.86.86,0,0,0-.86-.86H306.09a.87.87,0,0,0-.86.86V37.42a12,12,0,0,1-2.14,7.11,7.12,7.12,0,0,1-6.21,3,6.7,6.7,0,0,1-3.51-.81,6,6,0,0,1-2.13-2.23,9.46,9.46,0,0,1-1.09-3.23,24.28,24.28,0,0,1-.29-3.79V12.76a.86.86,0,0,0-.86-.86H275.07a.87.87,0,0,0-.87.86v16a22.73,22.73,0,0,0-1.33-3.89A23.18,23.18,0,0,0,267.18,17a25.2,25.2,0,0,0-8.35-4.93,30.89,30.89,0,0,0-20.26,0A24.56,24.56,0,0,0,230.22,17a22.61,22.61,0,0,0-2.84,3.15l2.76-7.09a.87.87,0,0,0-.81-1.18H214.73a.87.87,0,0,0-.83.61l-9.2,29.76h-.29L194.08,12.47a.87.87,0,0,0-.82-.58H177.91a.87.87,0,0,0-.8,1.2ZM238.13,30.8a11.78,11.78,0,0,1,2.12-3.9,10.73,10.73,0,0,1,3.52-2.75,11.93,11.93,0,0,1,9.83,0,11.32,11.32,0,0,1,3.56,2.75,12,12,0,0,1,2.22,3.9,13.69,13.69,0,0,1,.77,4.53,14.5,14.5,0,0,1-.72,4.53,12.39,12.39,0,0,1-2.17,4,10.67,10.67,0,0,1-3.57,2.84,11.92,11.92,0,0,1-9.83,0,10.65,10.65,0,0,1-3.56-2.84,12.37,12.37,0,0,1-2.17-4,14.54,14.54,0,0,1,0-9.06" style="fill:#fff"/><path d="M288.67,109.58H302.5a.87.87,0,0,0,.87-.86V80.35a26.89,26.89,0,0,0-.9-6.79,18.93,18.93,0,0,0-2.89-6.26,15.12,15.12,0,0,0-5.27-4.56A17,17,0,0,0,286.2,61a17.47,17.47,0,0,0-9,2.18,18,18,0,0,0-6.07,5.88,14.32,14.32,0,0,0-5.55-6A16.9,16.9,0,0,0,256.87,61a17.09,17.09,0,0,0-4.89.66,17.28,17.28,0,0,0-4,1.76,13.53,13.53,0,0,0-3.08,2.51,16.49,16.49,0,0,0-2.13,2.94h-.19V63.19a.86.86,0,0,0-.87-.86H228.32a.87.87,0,0,0-.87.86v45.53a.87.87,0,0,0,.87.86h13.93a.86.86,0,0,0,.87-.86V84a12.34,12.34,0,0,1,2-7.21,6.59,6.59,0,0,1,5.74-2.94A5.76,5.76,0,0,1,256,76.18a11.33,11.33,0,0,1,1.61,6.45v26.08a.87.87,0,0,0,.86.86h13.83a.86.86,0,0,0,.86-.86V84.05a15.38,15.38,0,0,1,.47-3.84,10,10,0,0,1,1.47-3.27,7.7,7.7,0,0,1,2.47-2.28,6.78,6.78,0,0,1,3.46-.85,6.27,6.27,0,0,1,3.37.81,6,6,0,0,1,2,2.14,9.18,9.18,0,0,1,1,3.18,25.23,25.23,0,0,1,.29,3.84v24.94a.86.86,0,0,0,.87.86" style="fill:#fff"/><path d="M313.55,112.21H298.94a.87.87,0,0,0-.83.61l-9.2,29.75h-.29l-10.33-29.78a.87.87,0,0,0-.82-.58H262.13a.86.86,0,0,0-.8,1.2l.9,2.13a15.44,15.44,0,0,0-5.56-3.37,30.33,30.33,0,0,0-10.11-1.47,33.34,33.34,0,0,0-11.34,2,27.25,27.25,0,0,0-9.08,5.38.87.87,0,0,0,0,1.24l6.71,7.19a.87.87,0,0,0,1.19.06,21,21,0,0,1,4.64-2.87,15.11,15.11,0,0,1,6.4-1.42,10.64,10.64,0,0,1,6.07,1.66,5.8,5.8,0,0,1,2.47,5.17v.76a100.78,100.78,0,0,0-10.53.57,38.25,38.25,0,0,0-9.82,2.28,18.36,18.36,0,0,0-7.21,4.84,10.24,10.24,0,0,0-1.68,2.58V88.59a.86.86,0,0,0-.87-.86H209.65a.86.86,0,0,0-.87.86v28.65h-.19a19.6,19.6,0,0,0-5.6-4.36,18,18,0,0,0-8.82-2,20.8,20.8,0,0,0-16.27,7.4,24.62,24.62,0,0,0-4.46,7.92,28.6,28.6,0,0,0-1.57,9.44,29.78,29.78,0,0,0,1.52,9.49,24.36,24.36,0,0,0,4.41,8,21.76,21.76,0,0,0,7.07,5.55,20.94,20.94,0,0,0,9.49,2.09,21.19,21.19,0,0,0,9-1.94,14.76,14.76,0,0,0,6.5-5.55H210v5.3a.87.87,0,0,0,.86.86h12.6a.86.86,0,0,0,.87-.86v-6.84a11,11,0,0,0,.5,1.06,13.35,13.35,0,0,0,4.13,4.55,17.23,17.23,0,0,0,5.55,2.47,24.27,24.27,0,0,0,5.88.76,19.41,19.41,0,0,0,7.92-1.61,11.7,11.7,0,0,0,5.46-4.55h.29v4.16a.86.86,0,0,0,.86.86h12.5a.86.86,0,0,0,.86-.86v-23a55,55,0,0,0-.4-6.77l12.66,29.83L279,162.6a13.45,13.45,0,0,1-2.75,4.7q-1.62,1.66-5.22,1.66a15,15,0,0,1-2.52-.24q-.84-.14-1.58-.34a.86.86,0,0,0-1.06.73l-1.48,11.33a.87.87,0,0,0,.67,1,30.44,30.44,0,0,0,3.26.56,37.05,37.05,0,0,0,4.51.29,25.55,25.55,0,0,0,7.73-1,16.48,16.48,0,0,0,5.69-3.08,19.89,19.89,0,0,0,4.18-4.93,41.42,41.42,0,0,0,3.18-6.59l20.7-53.19a.87.87,0,0,0-.81-1.18m-104.91,28a12.62,12.62,0,0,1-2.28,3.89,11.35,11.35,0,0,1-3.56,2.75,10.47,10.47,0,0,1-4.75,1,10.67,10.67,0,0,1-4.84-1,10.78,10.78,0,0,1-3.51-2.75,11.56,11.56,0,0,1-2.13-3.94,14.71,14.71,0,0,1-.71-4.51,14.29,14.29,0,0,1,.71-4.46,10.91,10.91,0,0,1,5.65-6.55,10.67,10.67,0,0,1,4.84-1,10.47,10.47,0,0,1,4.75,1,11.35,11.35,0,0,1,3.56,2.75,12.62,12.62,0,0,1,2.28,3.89,12.73,12.73,0,0,1,0,8.92m45.43.28a9.76,9.76,0,0,1-2.51,7.07q-2.52,2.61-7.26,2.61a12.48,12.48,0,0,1-2.37-.24,6.59,6.59,0,0,1-2.18-.81,4.77,4.77,0,0,1-1.57-1.52,4.08,4.08,0,0,1-.62-2.28,4.47,4.47,0,0,1,1.33-3.37,8.58,8.58,0,0,1,3.37-1.94,21.29,21.29,0,0,1,4.65-.9q2.61-.24,5.17-.24h2Z" style="fill:#fff"/><path d="M380.72,73.57a18.92,18.92,0,0,0-2.89-6.26,15.11,15.11,0,0,0-5.27-4.56A17,17,0,0,0,364.45,61a17.47,17.47,0,0,0-9,2.18,18,18,0,0,0-6.07,5.88,14.33,14.33,0,0,0-5.55-6A16.91,16.91,0,0,0,335.13,61a17,17,0,0,0-8.92,2.42,13.51,13.51,0,0,0-3.08,2.51A16.53,16.53,0,0,0,321,68.87h-.19V63.19a.86.86,0,0,0-.86-.86H306.57a.87.87,0,0,0-.86.86v45.53a.87.87,0,0,0,.86.86H320.5a.87.87,0,0,0,.86-.86V84a12.34,12.34,0,0,1,2-7.21,6.59,6.59,0,0,1,5.74-2.94,5.76,5.76,0,0,1,5.12,2.37,11.33,11.33,0,0,1,1.61,6.45v26.08a.87.87,0,0,0,.87.86h13.83a.87.87,0,0,0,.86-.86V84.05a15.33,15.33,0,0,1,.48-3.84,9.94,9.94,0,0,1,1.47-3.27,7.69,7.69,0,0,1,2.47-2.28,6.78,6.78,0,0,1,3.46-.85,6.26,6.26,0,0,1,3.37.81,6,6,0,0,1,2,2.13,9.2,9.2,0,0,1,1,3.18,25.23,25.23,0,0,1,.29,3.84v24.94a.87.87,0,0,0,.86.86h13.83a.87.87,0,0,0,.86-.86V80.35a26.88,26.88,0,0,0-.9-6.79" style="fill:#fff"/><path d="M88.15,4.47a81.21,81.21,0,1,0,81.21,81.21A81.21,81.21,0,0,0,88.15,4.47m0,149.19a68,68,0,1,1,68-68c0,1.42-.06,2.83-.15,4.24-13.11,14.79-31.74,25.73-51.51,30.49v-1.19a6.68,6.68,0,0,0-6.68-6.68H77.89a6.68,6.68,0,0,0-6.68,6.68v14.23a6.68,6.68,0,0,0,6.68,6.68H97.8a6.68,6.68,0,0,0,6.68-6.68V131a94.76,94.76,0,0,0,50-30.33,68.09,68.09,0,0,1-66.3,53" style="fill:#fff"/><path d="M297.61,156.46a3.18,3.18,0,0,1,1-2.36,3.33,3.33,0,0,1,2.42-1,3.44,3.44,0,0,1,2.4.94,3,3,0,0,1,1,2.32,3.19,3.19,0,0,1-1,2.36,3.34,3.34,0,0,1-2.42,1,3.38,3.38,0,0,1-1.31-.26,3.73,3.73,0,0,1-1.09-.69,3.18,3.18,0,0,1-.75-1,3,3,0,0,1-.28-1.29" style="fill:#fff"/><path d="M321,144.59a4.54,4.54,0,0,0-1.8-1.44,5.57,5.57,0,0,0-2.44-.58,5.15,5.15,0,0,0-2.49.58,5.4,5.4,0,0,0-1.78,1.52,6.58,6.58,0,0,0-1.05,2.12,8.5,8.5,0,0,0-.34,2.38,8,8,0,0,0,.36,2.38,6.6,6.6,0,0,0,1.09,2.12,5.55,5.55,0,0,0,1.82,1.52,5.37,5.37,0,0,0,2.55.58,6.49,6.49,0,0,0,2.4-.47,4.56,4.56,0,0,0,1.93-1.37l3.21,3.26a8.52,8.52,0,0,1-3.28,2.12,12.13,12.13,0,0,1-4.31.75,12.69,12.69,0,0,1-4.31-.73,10.05,10.05,0,0,1-6-5.57,11.36,11.36,0,0,1-.88-4.59,11.14,11.14,0,0,1,.88-4.5,10.32,10.32,0,0,1,2.38-3.43,10.62,10.62,0,0,1,3.49-2.19,11.92,11.92,0,0,1,8.66.09,8.31,8.31,0,0,1,3.37,2.36Z" style="fill:#fff"/><path d="M324.84,149.09a10.88,10.88,0,0,1,.88-4.44,10.22,10.22,0,0,1,5.94-5.59,12.78,12.78,0,0,1,8.74,0,10.49,10.49,0,0,1,3.56,2.19,10.38,10.38,0,0,1,2.38,3.41,10.88,10.88,0,0,1,.88,4.44,11,11,0,0,1-.88,4.46A10.56,10.56,0,0,1,344,157a10.86,10.86,0,0,1-3.56,2.25,12.13,12.13,0,0,1-8.74,0A10.86,10.86,0,0,1,328.1,157a10.56,10.56,0,0,1-2.38-3.45,11,11,0,0,1-.88-4.46m5.23,0a8.22,8.22,0,0,0,.36,2.4,6.58,6.58,0,0,0,1.09,2.14,5.71,5.71,0,0,0,1.84,1.54,6.19,6.19,0,0,0,5.32,0,5.72,5.72,0,0,0,1.84-1.54,6.62,6.62,0,0,0,1.09-2.14,8.25,8.25,0,0,0,.36-2.4,8,8,0,0,0-.36-2.38,6.67,6.67,0,0,0-1.09-2.12,5.51,5.51,0,0,0-1.84-1.52,6.39,6.39,0,0,0-5.32,0,5.49,5.49,0,0,0-1.84,1.52,6.63,6.63,0,0,0-1.09,2.12,8,8,0,0,0-.36,2.38" style="fill:#fff"/><path d="M374,138.29a7.73,7.73,0,0,1,3.45.71,6.81,6.81,0,0,1,2.36,1.87,7.55,7.55,0,0,1,1.35,2.66,11.21,11.21,0,0,1,.43,3.09v12.86h-5.14v-11.4a14.55,14.55,0,0,0-.13-1.89,5.08,5.08,0,0,0-.56-1.78,3.7,3.7,0,0,0-1.18-1.31,3.46,3.46,0,0,0-2-.51,3.93,3.93,0,0,0-2.06.51,4.5,4.5,0,0,0-1.41,1.33,5.68,5.68,0,0,0-.81,1.82,8,8,0,0,0-.26,2v11.23h-5.14V147a5.28,5.28,0,0,0-.92-3.19,3.34,3.34,0,0,0-2.89-1.26,4,4,0,0,0-2,.49,4.23,4.23,0,0,0-1.39,1.26,5.79,5.79,0,0,0-.82,1.78,7.59,7.59,0,0,0-.28,2v11.32h-5.14V138.89h4.89v3.3h.09a6.1,6.1,0,0,1,.92-1.46,7.24,7.24,0,0,1,1.37-1.24,6.58,6.58,0,0,1,1.82-.88,7.6,7.6,0,0,1,2.27-.32,7,7,0,0,1,4,1.07,7.12,7.12,0,0,1,2.44,2.83A7.35,7.35,0,0,1,370,139.3a7.81,7.81,0,0,1,4-1" style="fill:#fff"/></svg>